<svg width="427" height="310" viewBox="0 0 427 310" fill="none" xmlns="http://www.w3.org/2000/svg"><path d="M103.148 213.763C157.548 213.763 201.648 169.439 201.648 114.763C201.648 60.087 157.548 15.7632 103.148 15.7632C48.7484 15.7632 4.64844 60.087 4.64844 114.763C4.64844 169.439 48.7484 213.763 103.148 213.763Z" fill="#FA9E42"/><path d="M96.0304 100.684C128.767 83.2962 147.077 53.7094 136.928 34.6002C126.778 15.4909 92.0115 14.0954 59.2749 31.4833C26.5383 48.8712 8.22801 78.4579 18.3778 97.5672C28.5275 116.676 63.2938 118.072 96.0304 100.684Z" fill="#F8E36F"/><g filter="url(#filter0_d_112_5)"><path d="M296.993 277.761H105.561C86.9911 277.747 69.146 270.549 55.7621 257.676C42.3782 244.802 34.4932 227.25 33.7577 208.694C33.0221 190.138 39.4932 172.017 51.8161 158.124C64.1391 144.232 81.3584 135.645 99.8695 134.161C102.509 115.521 110.927 98.1773 123.937 84.5706C136.948 70.9639 153.897 61.7787 172.4 58.3071C190.903 54.8355 210.029 57.2522 227.087 65.2174C244.145 73.1826 258.277 86.2953 267.493 102.711C284.399 96.8587 302.664 96.175 319.959 100.747C337.255 105.318 352.796 114.938 364.602 128.379C376.407 141.82 383.941 158.473 386.243 176.214C388.545 193.955 385.51 211.979 377.526 227.988C372.84 242.451 363.693 255.059 351.397 264.001C339.101 272.943 324.289 277.76 309.086 277.761H296.993Z" fill="url(#paint0_radial_112_5)" fill-opacity="0.8"/><path d="M309.085 276.76C316.805 276.76 324.395 275.528 331.644 273.097C338.654 270.746 345.236 267.316 351.206 262.901C357.107 258.537 362.28 253.309 366.581 247.363C370.936 241.343 374.298 234.721 376.574 227.68L376.597 227.608L376.631 227.54C379.658 221.492 381.989 215.094 383.559 208.524C385.175 201.763 385.994 194.778 385.994 187.76C385.994 181.721 385.385 175.686 384.186 169.823C383.016 164.109 381.272 158.489 379 153.118C376.77 147.845 374.009 142.758 370.795 138C367.611 133.287 363.954 128.856 359.926 124.828C355.898 120.8 351.467 117.144 346.754 113.96C341.996 110.745 336.91 107.984 331.636 105.754C326.265 103.482 320.645 101.738 314.931 100.568C309.068 99.3686 303.033 98.7602 296.994 98.7602C286.994 98.7602 277.179 100.406 267.821 103.651L267.031 103.925L266.621 103.197C259.006 89.655 247.928 78.2824 234.585 70.3086C227.838 66.276 220.589 63.1597 213.039 61.0464C205.251 58.8662 197.161 57.7607 188.994 57.7607C178.009 57.7607 167.286 59.7377 157.123 63.6368C147.305 67.4034 138.299 72.8445 130.354 79.8087C122.454 86.733 115.899 94.9029 110.87 104.092C105.717 113.506 102.349 123.668 100.86 134.296L100.748 135.091L99.9474 135.154C90.9892 135.855 82.3703 138.214 74.3302 142.164C66.5178 146.002 59.5416 151.194 53.5954 157.595C41.3773 170.748 34.6484 187.884 34.6484 205.848C34.6484 215.421 36.5232 224.708 40.2207 233.45C41.9979 237.651 44.1976 241.704 46.7587 245.495C49.2956 249.25 52.2092 252.781 55.4183 255.99C58.6275 259.2 62.1588 262.113 65.9139 264.65C69.7049 267.211 73.7574 269.411 77.9591 271.188C86.7009 274.886 95.9876 276.76 105.561 276.76H296.994H309.085ZM309.085 277.76H296.994H105.561C65.845 277.76 33.6484 245.564 33.6484 205.848C33.6484 168.046 62.8131 137.057 99.8694 134.157C105.999 90.4181 143.565 56.7607 188.994 56.7607C222.696 56.7607 252.071 75.2839 267.493 102.707C276.735 99.5013 286.661 97.7602 296.994 97.7602C346.699 97.7602 386.994 138.055 386.994 187.76C386.994 202.219 383.585 215.881 377.525 227.988C368.188 256.87 341.076 277.76 309.085 277.76Z" fill="url(#paint1_linear_112_5)"/></g><defs><filter id="filter0_d_112_5" x="13.6484" y="28.7607" width="413.346" height="281" filterUnits="userSpaceOnUse" color-interpolation-filters="sRGB"><feFlood flood-opacity="0" result="BackgroundImageFix"/><feColorMatrix in="SourceAlpha" type="matrix" values="0 0 0 0 0 0 0 0 0 0 0 0 0 0 0 0 0 0 127 0" result="hardAlpha"/><feOffset dx="10" dy="2"/><feGaussianBlur stdDeviation="15"/><feColorMatrix type="matrix" values="0 0 0 0 0.501961 0 0 0 0 0.501961 0 0 0 0 0.501961 0 0 0 0.302 0"/><feBlend mode="normal" in2="BackgroundImageFix" result="effect1_dropShadow_112_5"/><feBlend mode="normal" in="SourceGraphic" in2="effect1_dropShadow_112_5" result="shape"/></filter><radialGradient id="paint0_radial_112_5" cx="0" cy="0" r="1" gradientUnits="userSpaceOnUse" gradientTransform="translate(317.217 157.87) rotate(43.4125) scale(147.118 159.643)"><stop stop-color="white" stop-opacity="0.604"/><stop offset="0.0001" stop-color="white" stop-opacity="0.95"/><stop offset="1" stop-color="white" stop-opacity="0.95"/></radialGradient><linearGradient id="paint1_linear_112_5" x1="105.5" y1="103.821" x2="344" y2="277.821" gradientUnits="userSpaceOnUse"><stop stop-color="white" stop-opacity="0.1"/><stop offset="1" stop-color="white" stop-opacity="0"/></linearGradient></defs></svg>
