<svg width="438" height="311" viewBox="0 0 438 311" fill="none" xmlns="http://www.w3.org/2000/svg"><path d="M103.268 6.72311C110.278 6.72135 117.27 7.42963 124.137 8.83711C137.39 11.5668 149.974 16.8888 161.164 24.4971C176.667 35.0048 189.053 49.4945 197.021 66.4436C204.989 83.3926 208.244 102.175 206.444 120.817C204.644 139.458 197.856 157.271 186.793 172.383C175.73 187.495 160.801 199.347 143.574 206.695C137.312 209.356 130.8 211.388 124.136 212.76C109.685 215.69 94.7754 215.508 80.4005 212.224C66.0257 208.941 52.5155 202.632 40.77 193.718C29.0244 184.804 19.3132 173.489 12.2832 160.528C5.25319 147.566 1.06578 133.256 -7.62939e-05 118.549C11.3314 121.201 23.1023 121.372 34.5059 119.049C44.7389 116.953 54.4592 112.863 63.1119 107.012C75.9742 98.3288 86.0422 86.1017 92.0959 71.8121C94.1414 66.9726 95.7027 61.9424 96.7569 56.7951C99.004 45.7664 98.9209 34.3898 96.5129 23.3951C95.3016 17.8974 93.5102 12.5437 91.1689 7.42412C95.185 6.95677 99.2248 6.7227 103.268 6.72311V6.72311Z" fill="#713FFD"/><g filter="url(#filter0_f_114_22)"><path d="M173.339 38.8964C150.095 17.9669 119.644 13.8916 105.325 29.7941C91.0067 45.6965 98.2426 75.5547 121.487 96.4842C144.732 117.414 175.183 121.489 189.501 105.586C203.82 89.6841 196.584 59.8259 173.339 38.8964Z" fill="#A586FC"/></g><g filter="url(#filter1_d_114_22)"><path d="M307.993 278.87H116.561C97.9911 278.855 80.146 271.658 66.7621 258.784C53.3782 245.911 45.4932 228.359 44.7577 209.803C44.0221 191.247 50.4932 173.126 62.8161 159.233C75.1391 145.341 92.3584 136.754 110.869 135.27C113.509 116.63 121.927 99.2862 134.937 85.6795C147.948 72.0728 164.897 62.8876 183.4 59.4159C201.903 55.9443 221.029 58.3611 238.087 66.3263C255.145 74.2915 269.277 87.4041 278.493 103.82C295.399 97.9676 313.664 97.2838 330.959 101.856C348.255 106.427 363.796 116.047 375.602 129.488C387.407 142.929 394.941 159.582 397.243 177.323C399.545 195.064 396.51 213.088 388.526 229.097C383.84 243.56 374.693 256.167 362.397 265.109C350.101 274.052 335.289 278.869 320.086 278.87H307.993Z" fill="url(#paint0_radial_114_22)" fill-opacity="0.8"/><path d="M320.085 277.869C327.805 277.869 335.395 276.637 342.644 274.206C349.654 271.855 356.236 268.424 362.206 264.01C368.107 259.646 373.28 254.418 377.581 248.472C381.936 242.452 385.298 235.83 387.574 228.789L387.597 228.717L387.631 228.649C390.658 222.601 392.989 216.203 394.559 209.633C396.175 202.872 396.994 195.886 396.994 188.869C396.994 182.83 396.385 176.795 395.186 170.932C394.016 165.218 392.272 159.597 390 154.227C387.77 148.953 385.009 143.867 381.795 139.109C378.611 134.396 374.954 129.964 370.926 125.937C366.898 121.909 362.467 118.252 357.754 115.068C352.996 111.854 347.91 109.093 342.636 106.863C337.265 104.591 331.645 102.847 325.931 101.677C320.068 100.477 314.033 99.8691 307.994 99.8691C297.994 99.8691 288.179 101.515 278.821 104.76L278.031 105.034L277.621 104.306C270.006 90.7639 258.928 79.3913 245.585 71.4174C238.838 67.3849 231.589 64.2686 224.039 62.1553C216.251 59.9751 208.161 58.8696 199.994 58.8696C189.009 58.8696 178.286 60.8466 168.123 64.7457C158.305 68.5123 149.299 73.9534 141.354 80.9176C133.454 87.8419 126.899 96.0118 121.87 105.2C116.717 114.615 113.349 124.777 111.86 135.405L111.748 136.2L110.947 136.263C101.989 136.964 93.3703 139.322 85.3302 143.273C77.5178 147.111 70.5416 152.303 64.5954 158.704C52.3773 171.856 45.6484 188.993 45.6484 206.956C45.6484 216.53 47.5232 225.817 51.2207 234.558C52.9979 238.76 55.1976 242.813 57.7587 246.604C60.2956 250.359 63.2092 253.89 66.4183 257.099C69.6275 260.308 73.1588 263.222 76.9139 265.759C80.7049 268.32 84.7574 270.52 88.9591 272.297C97.7009 275.994 106.988 277.869 116.561 277.869H307.994H320.085ZM320.085 278.869H307.994H116.561C76.845 278.869 44.6484 246.673 44.6484 206.956C44.6484 169.155 73.8131 138.166 110.869 135.266C116.999 91.527 154.565 57.8696 199.994 57.8696C233.696 57.8696 263.071 76.3928 278.493 103.816C287.735 100.61 297.661 98.8691 307.994 98.8691C357.699 98.8691 397.994 139.164 397.994 188.869C397.994 203.328 394.585 216.99 388.525 229.096C379.188 257.978 352.076 278.869 320.085 278.869Z" fill="url(#paint1_linear_114_22)"/></g><defs><filter id="filter0_f_114_22" x="77.9736" y="0.0932617" width="138.879" height="135.194" filterUnits="userSpaceOnUse" color-interpolation-filters="sRGB"><feFlood flood-opacity="0" result="BackgroundImageFix"/><feBlend mode="normal" in="SourceGraphic" in2="BackgroundImageFix" result="shape"/><feGaussianBlur stdDeviation="10" result="effect1_foregroundBlur_114_22"/></filter><filter id="filter1_d_114_22" x="24.6484" y="29.8696" width="413.346" height="281" filterUnits="userSpaceOnUse" color-interpolation-filters="sRGB"><feFlood flood-opacity="0" result="BackgroundImageFix"/><feColorMatrix in="SourceAlpha" type="matrix" values="0 0 0 0 0 0 0 0 0 0 0 0 0 0 0 0 0 0 127 0" result="hardAlpha"/><feOffset dx="10" dy="2"/><feGaussianBlur stdDeviation="15"/><feColorMatrix type="matrix" values="0 0 0 0 0.501961 0 0 0 0 0.501961 0 0 0 0 0.501961 0 0 0 0.302 0"/><feBlend mode="normal" in2="BackgroundImageFix" result="effect1_dropShadow_114_22"/><feBlend mode="normal" in="SourceGraphic" in2="effect1_dropShadow_114_22" result="shape"/></filter><radialGradient id="paint0_radial_114_22" cx="0" cy="0" r="1" gradientUnits="userSpaceOnUse" gradientTransform="translate(328.217 158.978) rotate(43.4125) scale(147.118 159.643)"><stop stop-color="white" stop-opacity="0.604"/><stop offset="0.0001" stop-color="white" stop-opacity="0.95"/><stop offset="1" stop-color="white" stop-opacity="0.95"/></radialGradient><linearGradient id="paint1_linear_114_22" x1="116.5" y1="104.93" x2="355" y2="278.93" gradientUnits="userSpaceOnUse"><stop stop-color="white" stop-opacity="0.1"/><stop offset="1" stop-color="white" stop-opacity="0"/></linearGradient></defs></svg>
