<svg width="423" height="343" viewBox="0 0 423 343" fill="none" xmlns="http://www.w3.org/2000/svg"><path d="M108.148 214.763C162.548 214.763 206.648 170.439 206.648 115.763C206.648 61.0868 162.548 16.7629 108.148 16.7629C53.7484 16.7629 9.64844 61.0868 9.64844 115.763C9.64844 170.439 53.7484 214.763 108.148 214.763Z" fill="#FA9E42"/><g filter="url(#filter0_f_115_83)"><path d="M101.03 101.684C133.767 84.2964 152.077 54.7096 141.928 35.6004C131.778 16.4912 97.0115 15.0957 64.2749 32.4835C31.5383 49.8714 13.228 79.4581 23.3778 98.5674C33.5275 117.677 68.2938 119.072 101.03 101.684Z" fill="#F8E36F"/></g><path d="M107.818 289.937C109.418 289.955 125.636 315.278 125.636 325.119C125.636 329.845 123.759 334.377 120.417 337.718C117.076 341.06 112.544 342.937 107.818 342.937C103.092 342.937 98.5603 341.06 95.2188 337.718C91.8772 334.377 90 329.845 90 325.119C90 315.279 106.219 289.919 107.818 289.937Z" fill="#42A0F0"/><path d="M94.2331 331.779C96.0135 332.323 98.2763 330.084 99.2871 326.778C100.298 323.471 99.674 320.35 97.8936 319.806C96.1132 319.261 93.8505 321.5 92.8397 324.807C91.8289 328.113 92.4527 331.234 94.2331 331.779Z" fill="white"/><path d="M200.818 289.937C202.418 289.955 218.636 315.278 218.636 325.119C218.636 329.845 216.759 334.377 213.417 337.718C210.076 341.06 205.544 342.937 200.818 342.937C196.092 342.937 191.56 341.06 188.219 337.718C184.877 334.377 183 329.845 183 325.119C183 315.279 199.219 289.919 200.818 289.937Z" fill="#42A0F0"/><path d="M187.233 331.779C189.014 332.323 191.276 330.084 192.287 326.778C193.298 323.471 192.674 320.35 190.894 319.806C189.113 319.261 186.85 321.5 185.84 324.807C184.829 328.113 185.453 331.234 187.233 331.779Z" fill="white"/><path d="M293.818 289.937C295.418 289.955 311.636 315.278 311.636 325.119C311.636 329.845 309.759 334.377 306.417 337.718C303.076 341.06 298.544 342.937 293.818 342.937C289.092 342.937 284.56 341.06 281.219 337.718C277.877 334.377 276 329.845 276 325.119C276 315.279 292.219 289.919 293.818 289.937Z" fill="#42A0F0"/><path d="M280.233 331.779C282.014 332.323 284.276 330.084 285.287 326.778C286.298 323.471 285.674 320.35 283.894 319.806C282.113 319.261 279.85 321.5 278.84 324.807C277.829 328.113 278.453 331.234 280.233 331.779Z" fill="white"/><path d="M154.818 211.937C156.418 211.955 172.636 237.278 172.636 247.119C172.636 251.845 170.759 256.377 167.417 259.718C164.076 263.06 159.544 264.937 154.818 264.937C150.092 264.937 145.56 263.06 142.219 259.718C138.877 256.377 137 251.845 137 247.119C137 237.279 153.219 211.919 154.818 211.937Z" fill="#42A0F0"/><path d="M141.233 253.779C143.014 254.323 145.276 252.084 146.287 248.778C147.298 245.471 146.674 242.35 144.894 241.806C143.113 241.261 140.85 243.5 139.84 246.807C138.829 250.113 139.453 253.234 141.233 253.779Z" fill="white"/><path d="M252.818 211.937C254.418 211.955 270.636 237.278 270.636 247.119C270.636 251.845 268.759 256.377 265.417 259.718C262.076 263.06 257.544 264.937 252.818 264.937C248.092 264.937 243.56 263.06 240.219 259.718C236.877 256.377 235 251.845 235 247.119C235 237.279 251.219 211.919 252.818 211.937Z" fill="#42A0F0"/><path d="M239.233 253.779C241.014 254.323 243.276 252.084 244.287 248.778C245.298 245.471 244.674 242.35 242.894 241.806C241.113 241.261 238.85 243.5 237.84 246.807C236.829 250.113 237.453 253.234 239.233 253.779Z" fill="white"/><g filter="url(#filter1_d_115_83)"><path d="M292.993 278.94H101.561C82.9911 278.926 65.146 271.728 51.7621 258.855C38.3782 245.981 30.4932 228.429 29.7577 209.873C29.0221 191.317 35.4932 173.196 47.8161 159.304C60.1391 145.411 77.3584 136.824 95.8695 135.34C98.5093 116.7 106.927 99.3565 119.937 85.7498C132.948 72.1431 149.897 62.9579 168.4 59.4863C186.903 56.0147 206.029 58.4314 223.087 66.3966C240.145 74.3618 254.277 87.4745 263.493 103.89C280.399 98.0379 298.664 97.3541 315.959 101.926C333.255 106.498 348.796 116.117 360.602 129.559C372.407 143 379.941 159.653 382.243 177.393C384.545 195.134 381.51 213.158 373.526 229.167C368.84 243.63 359.693 256.238 347.397 265.18C335.101 274.122 320.289 278.939 305.086 278.94H292.993Z" fill="url(#paint0_radial_115_83)" fill-opacity="0.8"/><path d="M305.085 277.939C312.805 277.939 320.395 276.707 327.644 274.276C334.654 271.925 341.236 268.495 347.206 264.08C353.107 259.716 358.28 254.488 362.581 248.542C366.936 242.522 370.298 235.9 372.574 228.859L372.597 228.787L372.631 228.719C375.658 222.671 377.989 216.273 379.559 209.703C381.175 202.943 381.994 195.957 381.994 188.939C381.994 182.9 381.385 176.865 380.186 171.002C379.016 165.288 377.272 159.668 375 154.297C372.77 149.024 370.009 143.937 366.795 139.18C363.611 134.467 359.954 130.035 355.926 126.007C351.898 121.979 347.467 118.323 342.754 115.139C337.996 111.924 332.91 109.164 327.636 106.933C322.265 104.662 316.645 102.917 310.931 101.748C305.068 100.548 299.033 99.9394 292.994 99.9394C282.994 99.9394 273.179 101.585 263.821 104.831L263.031 105.104L262.621 104.376C255.006 90.8342 243.928 79.4616 230.585 71.4878C223.838 67.4552 216.589 64.3389 209.039 62.2256C201.251 60.0454 193.161 58.9399 184.994 58.9399C174.009 58.9399 163.286 60.9169 153.123 64.816C143.305 68.5826 134.299 74.0237 126.354 80.9879C118.454 87.9122 111.899 96.0821 106.87 105.271C101.717 114.685 98.349 124.847 96.8597 135.475L96.7483 136.27L95.9474 136.333C86.9892 137.034 78.3703 139.393 70.3302 143.343C62.5178 147.182 55.5416 152.373 49.5954 158.774C37.3773 171.927 30.6484 189.063 30.6484 207.027C30.6484 216.6 32.5232 225.887 36.2207 234.629C37.9979 238.83 40.1976 242.883 42.7587 246.674C45.2956 250.429 48.2092 253.96 51.4183 257.17C54.6275 260.379 58.1588 263.292 61.9139 265.829C65.7049 268.39 69.7574 270.59 73.9591 272.367C82.7009 276.065 91.9876 277.939 101.561 277.939H292.994H305.085ZM305.085 278.939H292.994H101.561C61.845 278.939 29.6484 246.743 29.6484 207.027C29.6484 169.226 58.8131 138.237 95.8694 135.336C101.999 91.5973 139.565 57.9399 184.994 57.9399C218.696 57.9399 248.071 76.4631 263.493 103.886C272.735 100.681 282.661 98.9394 292.994 98.9394C342.699 98.9394 382.994 139.234 382.994 188.939C382.994 203.399 379.585 217.061 373.525 229.167C364.188 258.049 337.076 278.939 305.085 278.939Z" fill="url(#paint1_linear_115_83)"/></g><defs><filter id="filter0_f_115_83" x="0.578125" y="0.303223" width="164.149" height="133.561" filterUnits="userSpaceOnUse" color-interpolation-filters="sRGB"><feFlood flood-opacity="0" result="BackgroundImageFix"/><feBlend mode="normal" in="SourceGraphic" in2="BackgroundImageFix" result="shape"/><feGaussianBlur stdDeviation="10" result="effect1_foregroundBlur_115_83"/></filter><filter id="filter1_d_115_83" x="9.64844" y="29.9399" width="413.346" height="281" filterUnits="userSpaceOnUse" color-interpolation-filters="sRGB"><feFlood flood-opacity="0" result="BackgroundImageFix"/><feColorMatrix in="SourceAlpha" type="matrix" values="0 0 0 0 0 0 0 0 0 0 0 0 0 0 0 0 0 0 127 0" result="hardAlpha"/><feOffset dx="10" dy="2"/><feGaussianBlur stdDeviation="15"/><feColorMatrix type="matrix" values="0 0 0 0 0.501961 0 0 0 0 0.501961 0 0 0 0 0.501961 0 0 0 0.302 0"/><feBlend mode="normal" in2="BackgroundImageFix" result="effect1_dropShadow_115_83"/><feBlend mode="normal" in="SourceGraphic" in2="effect1_dropShadow_115_83" result="shape"/></filter><radialGradient id="paint0_radial_115_83" cx="0" cy="0" r="1" gradientUnits="userSpaceOnUse" gradientTransform="translate(313.217 159.049) rotate(43.4125) scale(147.118 159.643)"><stop stop-color="white" stop-opacity="0.604"/><stop offset="0.0001" stop-color="white" stop-opacity="0.95"/><stop offset="1" stop-color="white" stop-opacity="0.95"/></radialGradient><linearGradient id="paint1_linear_115_83" x1="101.5" y1="105" x2="340" y2="279" gradientUnits="userSpaceOnUse"><stop stop-color="white" stop-opacity="0.1"/><stop offset="1" stop-color="white" stop-opacity="0"/></linearGradient></defs></svg>
