<svg width="501" height="311" viewBox="0 0 501 311" fill="none" xmlns="http://www.w3.org/2000/svg">
<g filter="url(#filter0_f_102_16)">
<path d="M108.148 214.763C162.548 214.763 206.648 170.439 206.648 115.763C206.648 61.0868 162.548 16.7629 108.148 16.7629C53.7479 16.7629 9.64795 61.0868 9.64795 115.763C9.64795 170.439 53.7479 214.763 108.148 214.763Z" fill="#FA9E42"/>
<g filter="url(#filter1_f_102_16)">
<path d="M101.03 101.684C133.767 84.2964 152.077 54.7096 141.928 35.6004C131.778 16.4912 97.0115 15.0957 64.2749 32.4835C31.5383 49.8714 13.228 79.4581 23.3778 98.5674C33.5275 117.677 68.2938 119.072 101.03 101.684Z" fill="#F8E36F"/>
</g>
<g filter="url(#filter2_d_102_16)">
<path d="M301.993 278.763H110.561C91.9906 278.749 74.1455 271.551 60.7616 258.678C47.3777 245.804 39.4927 228.252 38.7572 209.696C38.0217 191.14 44.4927 173.019 56.8156 159.127C69.1386 145.234 86.358 136.647 104.869 135.163C107.509 116.523 115.926 99.1795 128.937 85.5728C141.947 71.9661 158.896 62.7809 177.4 59.3093C195.903 55.8377 215.029 58.2544 232.087 66.2196C249.145 74.1848 263.276 87.2975 272.493 103.713C289.398 97.8609 307.663 97.1771 324.959 101.749C342.254 106.321 357.796 115.94 369.601 129.382C381.406 142.823 388.941 159.476 391.242 177.216C393.544 194.957 390.509 212.981 382.525 228.99C377.839 243.453 368.692 256.061 356.397 265.003C344.101 273.945 329.289 278.762 314.085 278.763H301.993Z" fill="url(#paint0_linear_102_16)"/>
<path d="M314.085 277.762C321.804 277.762 329.394 276.53 336.644 274.099C343.654 271.748 350.235 268.318 356.205 263.903C362.106 259.539 367.279 254.311 371.58 248.365C375.935 242.345 379.297 235.723 381.573 228.682L381.597 228.61L381.631 228.542C384.658 222.494 386.989 216.096 388.559 209.526C390.174 202.766 390.993 195.78 390.993 188.762C390.993 182.723 390.385 176.688 389.185 170.825C388.016 165.111 386.271 159.491 384 154.12C381.769 148.847 379.008 143.76 375.794 139.003C372.61 134.29 368.953 129.858 364.926 125.83C360.898 121.802 356.466 118.146 351.753 114.962C346.995 111.747 341.909 108.987 336.636 106.756C331.265 104.485 325.645 102.74 319.931 101.571C314.067 100.371 308.032 99.7624 301.993 99.7624C291.994 99.7624 282.178 101.408 272.82 104.654L272.031 104.927L271.621 104.199C264.005 90.6572 252.927 79.2846 239.585 71.3108C232.837 67.2782 225.588 64.1619 218.039 62.0486C210.25 59.8684 202.16 58.7629 193.993 58.7629C183.009 58.7629 172.286 60.7399 162.123 64.639C152.305 68.4056 143.298 73.8467 135.353 80.8109C127.454 87.7352 120.899 95.9051 115.869 105.094C110.716 114.508 107.349 124.67 105.859 135.298L105.748 136.093L104.947 136.156C95.9887 136.857 87.3699 139.216 79.3297 143.166C71.5173 147.005 64.5411 152.196 58.5949 158.597C46.3768 171.75 39.6479 188.886 39.6479 206.85C39.6479 216.423 41.5227 225.71 45.2202 234.452C46.9974 238.653 49.1971 242.706 51.7582 246.497C54.2951 250.252 57.2087 253.783 60.4179 256.993C63.627 260.202 67.1583 263.115 70.9135 265.652C74.7044 268.213 78.757 270.413 82.9586 272.19C91.7004 275.888 100.987 277.762 110.561 277.762H301.993H314.085ZM314.085 278.762H301.993H110.561C70.8445 278.762 38.6479 246.566 38.6479 206.85C38.6479 169.049 67.8126 138.06 104.869 135.159C110.998 91.4203 148.565 57.7629 193.993 57.7629C227.695 57.7629 257.07 76.2861 272.492 103.709C281.735 100.504 291.66 98.7624 301.993 98.7624C351.699 98.7624 391.993 139.057 391.993 188.762C391.993 203.222 388.584 216.884 382.525 228.99C373.188 257.872 346.075 278.762 314.085 278.762Z" fill="white" fill-opacity="0.5"/>
</g>
</g>
<path d="M410.621 235C406.086 235 402.082 233.902 398.61 231.705C395.208 229.508 392.551 226.39 390.638 222.351C388.724 218.241 387.768 213.422 387.768 207.895C387.768 202.297 388.724 197.514 390.638 193.545C392.551 189.506 395.208 186.388 398.61 184.192C402.082 181.995 406.086 180.897 410.621 180.897C414.306 180.897 417.636 181.711 420.612 183.341C423.589 184.971 425.821 187.132 427.309 189.825V159H440.596V233.937H427.628V225.327C426.21 228.304 423.978 230.677 420.931 232.449C417.884 234.15 414.447 235 410.621 235ZM414.341 224.902C418.309 224.902 421.498 223.485 423.907 220.65C426.317 217.745 427.521 213.493 427.521 207.895C427.521 202.226 426.317 198.01 423.907 195.246C421.498 192.412 418.309 190.994 414.341 190.994C410.373 190.994 407.184 192.412 404.775 195.246C402.365 198.01 401.161 202.226 401.161 207.895C401.161 213.493 402.365 217.745 404.775 220.65C407.184 223.485 410.373 224.902 414.341 224.902Z" fill="white"/>
<path d="M363.107 235C357.225 235 352.159 233.901 347.907 231.705C343.655 229.508 340.36 226.39 338.022 222.351C335.754 218.312 334.62 213.528 334.62 208.001C334.62 202.616 335.719 197.903 337.915 193.864C340.183 189.825 343.266 186.672 347.163 184.404C351.131 182.065 355.631 180.896 360.662 180.896C368.032 180.896 373.843 183.235 378.094 187.912C382.417 192.589 384.578 198.966 384.578 207.044V210.977H347.376C348.368 220.26 353.682 224.902 363.32 224.902C366.225 224.902 369.13 224.477 372.036 223.626C374.941 222.705 377.598 221.288 380.008 219.375L383.728 228.303C381.248 230.358 378.13 231.988 374.374 233.193C370.618 234.397 366.863 235 363.107 235ZM361.194 189.931C357.296 189.931 354.143 191.136 351.734 193.545C349.324 195.955 347.872 199.214 347.376 203.324H373.524C373.24 199.002 372.036 195.706 369.91 193.439C367.855 191.1 364.949 189.931 361.194 189.931Z" fill="#013A51"/>
<path d="M472.523 235C468.767 235 465.401 234.291 462.425 232.874C459.52 231.386 457.217 229.402 455.516 226.921C453.886 224.441 453.071 221.642 453.071 218.524C453.071 214.698 454.063 211.686 456.048 209.489C458.032 207.222 461.256 205.592 465.72 204.6C470.185 203.608 476.172 203.112 483.684 203.112H487.404V200.879C487.404 197.336 486.625 194.785 485.066 193.226C483.507 191.667 480.885 190.888 477.2 190.888C474.295 190.888 471.318 191.348 468.271 192.27C465.224 193.12 462.142 194.466 459.024 196.309L455.197 187.274C457.04 185.998 459.201 184.9 461.681 183.979C464.232 182.987 466.889 182.243 469.653 181.747C472.488 181.18 475.145 180.896 477.625 180.896C485.207 180.896 490.841 182.668 494.526 186.211C498.211 189.683 500.053 195.104 500.053 202.474V233.937H487.617V225.646C486.412 228.551 484.499 230.854 481.877 232.555C479.255 234.185 476.137 235 472.523 235ZM475.287 225.858C478.759 225.858 481.629 224.654 483.896 222.244C486.235 219.835 487.404 216.788 487.404 213.103V210.765H483.79C477.129 210.765 472.488 211.296 469.866 212.359C467.315 213.351 466.039 215.194 466.039 217.886C466.039 220.225 466.854 222.138 468.484 223.626C470.114 225.114 472.381 225.858 475.287 225.858Z" fill="white"/>
<path d="M241.467 233.937L215 159H229.031L247.632 214.273L267.19 159H277.288L296.421 215.017L315.554 159H328.841L302.161 233.937H290.894L271.867 179.834L252.734 233.937H241.467Z" fill="#013A51"/>
<defs>
<filter id="filter0_f_102_16" x="5.64795" y="12.7629" width="390.345" height="270" filterUnits="userSpaceOnUse" color-interpolation-filters="sRGB">
<feFlood flood-opacity="0" result="BackgroundImageFix"/>
<feBlend mode="normal" in="SourceGraphic" in2="BackgroundImageFix" result="shape"/>
<feGaussianBlur stdDeviation="2" result="effect1_foregroundBlur_102_16"/>
</filter>
<filter id="filter1_f_102_16" x="0.577637" y="0.303223" width="164.15" height="133.561" filterUnits="userSpaceOnUse" color-interpolation-filters="sRGB">
<feFlood flood-opacity="0" result="BackgroundImageFix"/>
<feBlend mode="normal" in="SourceGraphic" in2="BackgroundImageFix" result="shape"/>
<feGaussianBlur stdDeviation="10" result="effect1_foregroundBlur_102_16"/>
</filter>
<filter id="filter2_d_102_16" x="18.6479" y="29.7629" width="413.345" height="281" filterUnits="userSpaceOnUse" color-interpolation-filters="sRGB">
<feFlood flood-opacity="0" result="BackgroundImageFix"/>
<feColorMatrix in="SourceAlpha" type="matrix" values="0 0 0 0 0 0 0 0 0 0 0 0 0 0 0 0 0 0 127 0" result="hardAlpha"/>
<feOffset dx="10" dy="2"/>
<feGaussianBlur stdDeviation="15"/>
<feColorMatrix type="matrix" values="0 0 0 0 0.501961 0 0 0 0 0.501961 0 0 0 0 0.501961 0 0 0 0.302 0"/>
<feBlend mode="normal" in2="BackgroundImageFix" result="effect1_dropShadow_102_16"/>
<feBlend mode="normal" in="SourceGraphic" in2="effect1_dropShadow_102_16" result="shape"/>
</filter>
<linearGradient id="paint0_linear_102_16" x1="215.346" y1="57.7654" x2="215.346" y2="278.763" gradientUnits="userSpaceOnUse">
<stop stop-color="white"/>
<stop offset="1" stop-color="white" stop-opacity="0.6"/>
</linearGradient>
</defs>
</svg>
