<svg width="424" height="378" viewBox="0 0 424 378" fill="none" xmlns="http://www.w3.org/2000/svg"><path d="M108.148 214.763C162.548 214.763 206.648 170.439 206.648 115.763C206.648 61.0868 162.548 16.7629 108.148 16.7629C53.7484 16.7629 9.64844 61.0868 9.64844 115.763C9.64844 170.439 53.7484 214.763 108.148 214.763Z" fill="#FA9E42"/><g filter="url(#filter0_f_135_2)"><path d="M101.03 101.684C133.767 84.2964 152.077 54.7096 141.928 35.6004C131.778 16.4912 97.0115 15.0957 64.2749 32.4835C31.5383 49.8714 13.228 79.4581 23.3778 98.5674C33.5275 117.677 68.2938 119.072 101.03 101.684Z" fill="#F8E36F"/></g><path d="M126.978 204.294C127.694 204.312 134.96 229.542 134.96 239.346C134.96 249.15 131.386 257.099 126.978 257.099C122.57 257.099 118.996 249.151 118.996 239.347C118.996 229.543 126.262 204.277 126.978 204.294Z" fill="#42A0F0"/><path d="M123.122 242.346C124.288 242.703 125.824 241.06 126.552 238.677C127.281 236.294 126.926 234.073 125.76 233.717C124.594 233.36 123.058 235.003 122.329 237.386C121.601 239.769 121.955 241.99 123.122 242.346Z" fill="white"/><path d="M182.369 204.294C183.085 204.312 190.351 229.542 190.351 239.346C190.351 249.15 186.777 257.099 182.369 257.099C177.961 257.099 174.387 249.151 174.387 239.347C174.387 229.543 181.653 204.277 182.369 204.294Z" fill="#42A0F0"/><path d="M178.512 242.346C179.678 242.703 181.214 241.06 181.943 238.677C182.671 236.294 182.317 234.073 181.151 233.717C179.984 233.36 178.448 235.003 177.72 237.386C176.991 239.769 177.346 241.99 178.512 242.346Z" fill="white"/><path d="M241.796 204.294C242.512 204.312 249.778 229.542 249.778 239.346C249.778 249.15 246.204 257.099 241.796 257.099C237.388 257.099 233.814 249.151 233.814 239.347C233.814 229.543 241.08 204.277 241.796 204.294Z" fill="#42A0F0"/><path d="M237.94 242.346C239.106 242.703 240.642 241.06 241.371 238.677C242.099 236.294 241.744 234.073 240.578 233.717C239.412 233.36 237.876 235.003 237.148 237.386C236.419 239.769 236.774 241.99 237.94 242.346Z" fill="white"/><path d="M296.683 201.294C297.399 201.312 304.665 226.542 304.665 236.346C304.665 246.15 301.091 254.099 296.683 254.099C292.275 254.099 288.701 246.151 288.701 236.347C288.701 226.543 295.967 201.277 296.683 201.294Z" fill="#42A0F0"/><path d="M292.827 239.346C293.993 239.703 295.529 238.06 296.257 235.677C296.986 233.294 296.631 231.073 295.465 230.717C294.299 230.36 292.763 232.003 292.034 234.386C291.306 236.769 291.661 238.99 292.827 239.346Z" fill="white"/><path d="M210.336 271.294C211.052 271.312 218.318 296.542 218.318 306.346C218.318 316.15 214.744 324.099 210.336 324.099C205.928 324.099 202.354 316.151 202.354 306.347C202.354 296.543 209.62 271.277 210.336 271.294Z" fill="#42A0F0"/><path d="M206.479 309.346C207.645 309.703 209.181 308.06 209.91 305.677C210.638 303.294 210.284 301.073 209.117 300.717C207.951 300.36 206.415 302.003 205.687 304.386C204.958 306.769 205.313 308.99 206.479 309.346Z" fill="white"/><path d="M269.761 271.294C270.477 271.312 277.743 296.542 277.743 306.346C277.743 316.15 274.169 324.099 269.761 324.099C265.353 324.099 261.779 316.151 261.779 306.347C261.779 296.543 269.045 271.277 269.761 271.294Z" fill="#42A0F0"/><path d="M265.905 309.346C267.071 309.703 268.607 308.06 269.336 305.677C270.064 303.294 269.709 301.073 268.543 300.717C267.377 300.36 265.841 302.003 265.112 304.386C264.384 306.769 264.739 308.99 265.905 309.346Z" fill="white"/><path d="M332.683 271.294C333.399 271.312 340.665 296.542 340.665 306.346C340.665 316.15 337.091 324.099 332.683 324.099C328.275 324.099 324.701 316.151 324.701 306.347C324.701 296.543 331.967 271.277 332.683 271.294Z" fill="#42A0F0"/><path d="M328.827 309.346C329.993 309.703 331.529 308.06 332.257 305.677C332.986 303.294 332.631 301.073 331.465 300.717C330.299 300.36 328.763 302.003 328.034 304.386C327.306 306.769 327.661 308.99 328.827 309.346Z" fill="white"/><path d="M150.909 274.294C151.625 274.312 158.891 299.542 158.891 309.346C158.891 319.15 155.317 327.099 150.909 327.099C146.501 327.099 142.927 319.151 142.927 309.347C142.927 299.543 150.193 274.277 150.909 274.294Z" fill="#42A0F0"/><path d="M147.052 312.346C148.218 312.703 149.754 311.06 150.483 308.677C151.212 306.294 150.857 304.073 149.691 303.717C148.524 303.36 146.988 305.003 146.26 307.386C145.531 309.769 145.886 311.99 147.052 312.346Z" fill="white"/><path d="M94.9781 271.294C95.6941 271.312 102.96 296.542 102.96 306.346C102.96 316.15 99.3861 324.099 94.9781 324.099C90.5701 324.099 86.9961 316.151 86.9961 306.347C86.9961 296.543 94.2621 271.277 94.9781 271.294Z" fill="#42A0F0"/><path d="M91.1216 309.346C92.2878 309.703 93.8237 308.06 94.5523 305.677C95.2809 303.294 94.9261 301.073 93.76 300.717C92.5938 300.36 91.0578 302.003 90.3293 304.386C89.6007 306.769 89.9554 308.99 91.1216 309.346Z" fill="white"/><path d="M126.978 324.294C127.694 324.312 134.96 349.542 134.96 359.346C134.96 369.15 131.386 377.099 126.978 377.099C122.57 377.099 118.996 369.151 118.996 359.347C118.996 349.543 126.262 324.277 126.978 324.294Z" fill="#42A0F0"/><path d="M123.122 362.346C124.288 362.703 125.824 361.06 126.552 358.677C127.281 356.294 126.926 354.073 125.76 353.717C124.594 353.36 123.058 355.003 122.329 357.386C121.601 359.769 121.955 361.99 123.122 362.346Z" fill="white"/><path d="M182.369 324.294C183.085 324.312 190.351 349.542 190.351 359.346C190.351 369.15 186.777 377.099 182.369 377.099C177.961 377.099 174.387 369.151 174.387 359.347C174.387 349.543 181.653 324.277 182.369 324.294Z" fill="#42A0F0"/><path d="M178.512 362.346C179.678 362.703 181.214 361.06 181.943 358.677C182.671 356.294 182.317 354.073 181.151 353.717C179.984 353.36 178.448 355.003 177.72 357.386C176.991 359.769 177.346 361.99 178.512 362.346Z" fill="white"/><path d="M241.796 324.294C242.512 324.312 249.778 349.542 249.778 359.346C249.778 369.15 246.204 377.099 241.796 377.099C237.388 377.099 233.814 369.151 233.814 359.347C233.814 349.543 241.08 324.277 241.796 324.294Z" fill="#42A0F0"/><path d="M237.94 362.346C239.106 362.703 240.642 361.06 241.371 358.677C242.099 356.294 241.744 354.073 240.578 353.717C239.412 353.36 237.876 355.003 237.148 357.386C236.419 359.769 236.774 361.99 237.94 362.346Z" fill="white"/><path d="M296.683 324.294C297.399 324.312 304.665 349.542 304.665 359.346C304.665 369.15 301.091 377.099 296.683 377.099C292.275 377.099 288.701 369.151 288.701 359.347C288.701 349.543 295.967 324.277 296.683 324.294Z" fill="#42A0F0"/><path d="M292.827 362.346C293.993 362.703 295.529 361.06 296.257 358.677C296.986 356.294 296.631 354.073 295.465 353.717C294.299 353.36 292.763 355.003 292.034 357.386C291.306 359.769 291.661 361.99 292.827 362.346Z" fill="white"/><g filter="url(#filter1_d_135_2)"><path d="M293.345 281.94H101.913C83.3426 281.926 65.4976 274.728 52.1137 261.855C38.7298 248.981 30.8447 231.429 30.1092 212.873C29.3737 194.317 35.8448 176.196 48.1677 162.304C60.4906 148.411 77.71 139.824 96.221 138.34C98.8608 119.7 107.278 102.357 120.289 88.7498C133.299 75.1431 150.248 65.9579 168.752 62.4863C187.255 59.0147 206.381 61.4314 223.439 69.3966C240.497 77.3618 254.628 90.4745 263.845 106.89C280.75 101.038 299.015 100.354 316.311 104.926C333.606 109.498 349.148 119.117 360.953 132.559C372.759 146 380.293 162.653 382.594 180.393C384.896 198.134 381.861 216.158 373.877 232.167C369.192 246.63 360.045 259.238 347.749 268.18C335.453 277.122 320.641 281.939 305.437 281.94H293.345Z" fill="url(#paint0_radial_135_2)" fill-opacity="0.8"/><path d="M305.437 280.939C313.156 280.939 320.746 279.707 327.996 277.276C335.006 274.925 341.587 271.495 347.557 267.08C353.458 262.716 358.631 257.488 362.932 251.542C367.287 245.522 370.649 238.9 372.925 231.859L372.949 231.787L372.983 231.719C376.01 225.671 378.341 219.273 379.911 212.703C381.526 205.943 382.345 198.957 382.345 191.939C382.345 185.9 381.737 179.865 380.537 174.002C379.368 168.288 377.623 162.668 375.352 157.297C373.121 152.024 370.36 146.937 367.146 142.18C363.962 137.467 360.305 133.035 356.278 129.007C352.25 124.979 347.818 121.323 343.105 118.139C338.347 114.924 333.261 112.164 327.988 109.933C322.617 107.662 316.997 105.917 311.283 104.748C305.42 103.548 299.384 102.939 293.345 102.939C283.346 102.939 273.531 104.585 264.172 107.831L263.383 108.104L262.973 107.376C255.357 93.8342 244.279 82.4616 230.937 74.4878C224.189 70.4552 216.94 67.3389 209.391 65.2256C201.602 63.0454 193.512 61.9399 185.345 61.9399C174.361 61.9399 163.638 63.9169 153.475 67.816C143.657 71.5826 134.65 77.0237 126.705 83.9879C118.806 90.9122 112.251 99.0821 107.221 108.271C102.069 117.685 98.7006 127.847 97.2113 138.475L97.0998 139.27L96.299 139.333C87.3408 140.034 78.7219 142.393 70.6818 146.343C62.8694 150.182 55.8932 155.373 49.947 161.774C37.7289 174.927 31 192.063 31 210.027C31 219.6 32.8748 228.887 36.5723 237.629C38.3495 241.83 40.5491 245.883 43.1102 249.674C45.6472 253.429 48.5607 256.96 51.7699 260.17C54.9791 263.379 58.5104 266.292 62.2655 268.829C66.0565 271.39 70.109 273.59 74.3106 275.367C83.0525 279.065 92.3391 280.939 101.913 280.939H293.345H305.437ZM305.437 281.939H293.345H101.913C62.1966 281.939 30 249.743 30 210.027C30 172.226 59.1646 141.237 96.221 138.336C102.35 94.5973 139.917 60.9399 185.345 60.9399C219.048 60.9399 248.422 79.4631 263.845 106.886C273.087 103.681 283.012 101.939 293.345 101.939C343.051 101.939 383.345 142.234 383.345 191.939C383.345 206.399 379.936 220.061 373.877 232.167C364.54 261.049 337.427 281.939 305.437 281.939Z" fill="url(#paint1_linear_135_2)"/></g><defs><filter id="filter0_f_135_2" x="0.578125" y="0.303345" width="164.149" height="133.561" filterUnits="userSpaceOnUse" color-interpolation-filters="sRGB"><feFlood flood-opacity="0" result="BackgroundImageFix"/><feBlend mode="normal" in="SourceGraphic" in2="BackgroundImageFix" result="shape"/><feGaussianBlur stdDeviation="10" result="effect1_foregroundBlur_135_2"/></filter><filter id="filter1_d_135_2" x="10" y="32.9399" width="413.346" height="281" filterUnits="userSpaceOnUse" color-interpolation-filters="sRGB"><feFlood flood-opacity="0" result="BackgroundImageFix"/><feColorMatrix in="SourceAlpha" type="matrix" values="0 0 0 0 0 0 0 0 0 0 0 0 0 0 0 0 0 0 127 0" result="hardAlpha"/><feOffset dx="10" dy="2"/><feGaussianBlur stdDeviation="15"/><feColorMatrix type="matrix" values="0 0 0 0 0.501961 0 0 0 0 0.501961 0 0 0 0 0.501961 0 0 0 0.302 0"/><feBlend mode="normal" in2="BackgroundImageFix" result="effect1_dropShadow_135_2"/><feBlend mode="normal" in="SourceGraphic" in2="effect1_dropShadow_135_2" result="shape"/></filter><radialGradient id="paint0_radial_135_2" cx="0" cy="0" r="1" gradientUnits="userSpaceOnUse" gradientTransform="translate(313.568 162.049) rotate(43.4125) scale(147.118 159.643)"><stop stop-color="white" stop-opacity="0.604"/><stop offset="0.0001" stop-color="white" stop-opacity="0.95"/><stop offset="1" stop-color="white" stop-opacity="0.95"/></radialGradient><linearGradient id="paint1_linear_135_2" x1="101.852" y1="108" x2="340.352" y2="282" gradientUnits="userSpaceOnUse"><stop stop-color="white" stop-opacity="0.1"/><stop offset="1" stop-color="white" stop-opacity="0"/></linearGradient></defs></svg>
