<svg width="416" height="350" viewBox="0 0 416 350" fill="none" xmlns="http://www.w3.org/2000/svg"><path d="M162.352 220.426C162.983 220.444 169.387 245.674 169.387 255.478C169.387 265.282 166.237 273.231 162.352 273.231C158.467 273.231 155.317 265.283 155.317 255.479C155.317 245.675 161.717 220.409 162.352 220.426Z" fill="#42A0F0"/><path d="M161.28 249.847C162.307 250.204 162.62 252.425 161.978 254.808C161.336 257.192 159.982 258.833 158.954 258.477C157.926 258.121 157.613 255.9 158.256 253.516C158.899 251.133 160.251 249.491 161.28 249.847Z" fill="white"/><path d="M222.283 220.426C222.914 220.444 229.318 245.674 229.318 255.478C229.318 265.282 226.168 273.231 222.283 273.231C218.398 273.231 215.248 265.283 215.248 255.479C215.248 245.675 221.648 220.409 222.283 220.426Z" fill="#42A0F0"/><path d="M221.211 249.847C222.238 250.204 222.551 252.425 221.909 254.808C221.267 257.192 219.913 258.833 218.885 258.477C217.857 258.121 217.544 255.9 218.187 253.516C218.83 251.133 220.182 249.491 221.211 249.847Z" fill="white"/><path d="M282.215 217.426C282.846 217.444 289.25 242.674 289.25 252.478C289.25 262.282 286.1 270.231 282.215 270.231C278.33 270.231 275.18 262.283 275.18 252.479C275.18 242.675 281.58 217.409 282.215 217.426Z" fill="#42A0F0"/><path d="M281.142 246.847C282.17 247.204 282.482 249.425 281.84 251.808C281.198 254.192 279.844 255.833 278.816 255.477C277.789 255.121 277.475 252.9 278.118 250.516C278.761 248.133 280.113 246.491 281.142 246.847Z" fill="white"/><path d="M190.556 287.426C191.187 287.444 197.591 312.674 197.591 322.478C197.591 332.282 194.441 340.231 190.556 340.231C186.671 340.231 183.521 332.283 183.521 322.479C183.521 312.675 189.921 287.409 190.556 287.426Z" fill="#42A0F0"/><path d="M189.483 316.847C190.511 317.204 190.823 319.425 190.181 321.808C189.539 324.192 188.185 325.833 187.157 325.477C186.129 325.121 185.816 322.9 186.459 320.516C187.102 318.133 188.454 316.491 189.483 316.847Z" fill="white"/><path d="M250.486 287.426C251.117 287.444 257.521 312.674 257.521 322.478C257.521 332.282 254.371 340.231 250.486 340.231C246.601 340.231 243.451 332.283 243.451 322.479C243.451 312.675 249.851 287.409 250.486 287.426Z" fill="#42A0F0"/><path d="M249.414 316.847C250.441 317.204 250.754 319.425 250.112 321.808C249.47 324.192 248.116 325.833 247.088 325.477C246.06 325.121 245.747 322.9 246.39 320.516C247.033 318.133 248.385 316.491 249.414 316.847Z" fill="white"/><path d="M313.942 287.426C314.573 287.444 320.977 312.674 320.977 322.478C320.977 332.282 317.827 340.231 313.942 340.231C310.057 340.231 306.907 332.283 306.907 322.479C306.907 312.675 313.307 287.409 313.942 287.426Z" fill="#42A0F0"/><path d="M312.87 316.847C313.897 317.204 314.21 319.425 313.568 321.808C312.926 324.192 311.572 325.833 310.544 325.477C309.516 325.121 309.203 322.9 309.846 320.516C310.489 318.133 311.841 316.491 312.87 316.847Z" fill="white"/><path d="M96.5442 8.34863C103.097 8.34725 109.634 9.00962 116.053 10.3256C128.443 12.8776 140.207 17.8529 150.668 24.9656C165.161 34.7889 176.741 48.335 184.189 64.18C191.638 80.0251 194.681 97.5841 192.998 115.012C191.315 132.439 184.969 149.091 174.626 163.219C164.283 177.346 150.326 188.426 134.221 195.295C128.367 197.782 122.279 199.681 116.049 200.964C102.54 203.704 88.601 203.534 75.1622 200.465C61.7233 197.396 49.0929 191.498 38.1122 183.165C27.1316 174.831 18.053 164.253 11.4813 152.136C4.90956 140.018 0.995615 126.639 0.000213623 112.891C5.63343 114.211 11.4003 114.877 17.1862 114.875C32.0885 114.898 46.655 110.449 59.0002 102.102C71.025 93.9864 80.4385 82.5582 86.1002 69.2016C89.9978 59.9922 91.9967 50.0909 91.9772 40.0906C91.978 34.6599 91.3909 29.245 90.2262 23.9406C89.0925 18.8007 87.4164 13.7957 85.2262 9.00963C88.9829 8.57056 92.7619 8.34986 96.5442 8.34863V8.34863Z" fill="#713FFD"/><g filter="url(#filter0_f_135_141)"><path d="M162.048 38.4271C140.318 18.8613 111.85 15.0517 98.4646 29.9182C85.0787 44.7847 91.8431 72.6976 113.573 92.2635C135.303 111.829 163.77 115.639 177.156 100.772C190.542 85.9059 183.778 57.993 162.048 38.4271Z" fill="#A586FC"/></g><path d="M90.5209 247.551H130.932L107.703 281.662L134.863 282.176L77.8549 349.651L91.6679 298.207H66.3809L90.5209 247.551Z" fill="url(#paint0_linear_135_141)"/><g filter="url(#filter1_d_135_141)"><path d="M285.066 279.07H93.6338C75.0633 279.056 57.2183 271.859 43.8344 258.985C30.4505 246.111 22.5654 228.559 21.8299 210.003C21.0944 191.447 27.5655 173.326 39.8884 159.434C52.2113 145.541 69.4307 136.954 87.9417 135.47C90.5815 116.83 98.9988 99.4866 112.009 85.8799C125.02 72.2732 141.969 63.0879 160.472 59.6163C178.975 56.1447 198.101 58.5615 215.159 66.5267C232.217 74.4918 246.349 87.6045 255.566 104.02C272.471 98.168 290.736 97.4842 308.031 102.056C325.327 106.628 340.868 116.248 352.674 129.689C364.479 143.13 372.013 159.783 374.315 177.523C376.617 195.264 373.582 213.288 365.598 229.297C360.912 243.76 351.765 256.368 339.469 265.31C327.174 274.252 312.361 279.069 297.158 279.07H285.066Z" fill="url(#paint1_radial_135_141)" fill-opacity="0.8"/><path d="M297.158 278.07C304.877 278.07 312.467 276.837 319.716 274.406C326.727 272.055 333.308 268.625 339.278 264.21C345.179 259.846 350.352 254.618 354.653 248.672C359.008 242.652 362.37 236.03 364.646 228.989L364.669 228.917L364.703 228.849C367.73 222.801 370.061 216.403 371.631 209.833C373.247 203.073 374.066 196.087 374.066 189.069C374.066 183.03 373.458 176.995 372.258 171.132C371.089 165.418 369.344 159.798 367.072 154.427C364.842 149.154 362.081 144.067 358.867 139.31C355.683 134.597 352.026 130.165 347.998 126.137C343.971 122.109 339.539 118.453 334.826 115.269C330.068 112.054 324.982 109.294 319.708 107.063C314.338 104.792 308.717 103.047 303.004 101.878C297.14 100.678 291.105 100.069 285.066 100.069C275.066 100.069 265.251 101.715 255.893 104.961L255.103 105.235L254.694 104.506C247.078 90.9642 236 79.5916 222.658 71.6178C215.91 67.5852 208.661 64.469 201.111 62.3557C193.323 60.1755 185.233 59.07 177.066 59.07C166.081 59.07 155.358 61.047 145.195 64.946C135.377 68.7127 126.371 74.1537 118.426 81.118C110.527 88.0422 103.971 96.2122 98.942 105.401C93.7892 114.815 90.4213 124.977 88.932 135.605L88.8205 136.4L88.0197 136.463C79.0615 137.164 70.4426 139.523 62.4025 143.473C54.5901 147.312 47.6139 152.504 41.6677 158.904C29.4496 172.057 22.7207 189.193 22.7207 207.157C22.7207 216.73 24.5955 226.017 28.293 234.759C30.0702 238.961 32.2698 243.013 34.8309 246.804C37.3679 250.559 40.2814 254.09 43.4906 257.3C46.6998 260.509 50.2311 263.422 53.9862 265.959C57.7772 268.52 61.8297 270.72 66.0313 272.497C74.7732 276.195 84.0598 278.07 93.6334 278.07H285.066H297.158ZM297.158 279.07H285.066H93.6334C53.9173 279.07 21.7207 246.873 21.7207 207.157C21.7207 169.356 50.8853 138.367 87.9417 135.466C94.0711 91.7274 131.638 58.07 177.066 58.07C210.768 58.07 240.143 76.5931 255.565 104.016C264.807 100.811 274.733 99.0695 285.066 99.0695C334.771 99.0695 375.066 139.364 375.066 189.069C375.066 203.529 371.657 217.191 365.598 229.297C356.26 258.179 329.148 279.07 297.158 279.07Z" fill="url(#paint2_linear_135_141)"/></g><defs><filter id="filter0_f_135_141" x="71.5918" y="0.849419" width="132.437" height="128.992" filterUnits="userSpaceOnUse" color-interpolation-filters="sRGB"><feFlood flood-opacity="0" result="BackgroundImageFix"/><feBlend mode="normal" in="SourceGraphic" in2="BackgroundImageFix" result="shape"/><feGaussianBlur stdDeviation="10" result="effect1_foregroundBlur_135_141"/></filter><filter id="filter1_d_135_141" x="1.7207" y="30.07" width="413.346" height="281" filterUnits="userSpaceOnUse" color-interpolation-filters="sRGB"><feFlood flood-opacity="0" result="BackgroundImageFix"/><feColorMatrix in="SourceAlpha" type="matrix" values="0 0 0 0 0 0 0 0 0 0 0 0 0 0 0 0 0 0 127 0" result="hardAlpha"/><feOffset dx="10" dy="2"/><feGaussianBlur stdDeviation="15"/><feColorMatrix type="matrix" values="0 0 0 0 0.501961 0 0 0 0 0.501961 0 0 0 0 0.501961 0 0 0 0.302 0"/><feBlend mode="normal" in2="BackgroundImageFix" result="effect1_dropShadow_135_141"/><feBlend mode="normal" in="SourceGraphic" in2="effect1_dropShadow_135_141" result="shape"/></filter><linearGradient id="paint0_linear_135_141" x1="94.3215" y1="298.601" x2="62.3331" y2="286.874" gradientUnits="userSpaceOnUse"><stop stop-color="#FFD100"/><stop offset="1" stop-color="#FFF0AA"/></linearGradient><radialGradient id="paint1_radial_135_141" cx="0" cy="0" r="1" gradientUnits="userSpaceOnUse" gradientTransform="translate(305.289 159.179) rotate(43.4125) scale(147.118 159.643)"><stop stop-color="white" stop-opacity="0.604"/><stop offset="0.0001" stop-color="white" stop-opacity="0.95"/><stop offset="1" stop-color="white" stop-opacity="0.95"/></radialGradient><linearGradient id="paint2_linear_135_141" x1="93.5723" y1="105.13" x2="332.072" y2="279.13" gradientUnits="userSpaceOnUse"><stop stop-color="white" stop-opacity="0.1"/><stop offset="1" stop-color="white" stop-opacity="0"/></linearGradient></defs></svg>
